<svg width="1000" height="1000" xmlns="http://www.w3.org/2000/svg">
 <g>
  <title>Layer 1</title>
  <line x1="500" y1="0" x2="450" y2="45" stroke="#000" fill="none" stroke-width="8" id="svg"/>
  <ellipse cx="500" cy="220" rx="260" ry="160" stroke="#000" fill="none" stroke-width="8" id="svg"/>
  <ellipse cx="500" cy="780" rx="240" ry="160" stroke="#000" fill="none" stroke-width="8" id="svg"/>

  <line x1="250" y1="220" x2="750" y2="220" stroke="#000" fill="none" stroke-width="8" id="svg"/>
  <line x1="370" y1="100" x2="630" y2="340" stroke="#000" fill="none" stroke-width="8" id="svg"/>
  <line x1="630" y1="100" x2="370" y2="340" stroke="#000" fill="none" stroke-width="8" id="svg"/>

  <line x1="100" y1="410" x2="900" y2="410" stroke="#000" fill="none" stroke-width="8" id="svg"/>

  <line x1="500" y1="420" x2="685" y2="555" stroke="#000" fill="none" stroke-width="8" id="svg"/>
  <line x1="calc(500 + 215)" y1="calc(420 + 158)" x2="calc(685 + 215)" y2="calc(555 + 158)" stroke="#000" fill="none" stroke-width="8" id="svg"/>
  <line x1="500" y1="420" x2="calc(1000 - 685)" y2="555" stroke="#000" fill="none" stroke-width="8" id="svg"/>
  <line x1="calc(1000 - (500 + 215))" y1="calc(420 + 158)" x2="calc(1000 - (685 + 215))" y2="calc(555 + 158)" stroke="#000" fill="none" stroke-width="8" id="svg"/>

  <line x1="500" y1="500" x2="100" y2="800" stroke="#000" fill="none" stroke-width="8" id="svg"/>
  <line x1="500" y1="500" x2="900" y2="800" stroke="#000" fill="none" stroke-width="8" id="svg"/>

  <ellipse cx="500" cy="500" rx="500" ry="500" stroke="#000" fill="none" stroke-width="8" id="svg"/>
 </g>
</svg>
